<svg width="90" height="87" viewBox="0 0 90 87" fill="none" xmlns="http://www.w3.org/2000/svg">
<g filter="url(#filter0_d_2028_24)">
<path d="M7.8 51.2812C7.8 46.05 13.4813 41.6625 18.6 41.6625C22.425 41.6625 26.5875 44.475 26.5875 46.8937C26.5875 48.4687 25.35 49.7062 23.775 49.7062C22.9875 49.7062 22.2563 49.425 21.75 48.8625C20.3438 47.4 20.0625 47.2875 18.6 47.2875C16.4625 47.2875 13.425 49.4812 13.425 51.2812C13.425 55.275 20.4563 55.6687 25.0125 60.1125C26.8125 61.8562 28.1625 64.5 28.1625 67.7062C28.1625 73.5562 22.3688 78.9562 16.35 78.9562C9.31875 78.9562 6 71.5875 6 70.0125C6 68.4375 7.29375 67.2 8.8125 67.2C9.99375 67.2 11.0625 67.9312 11.4563 69C12.5813 71.9812 13.9875 73.3312 16.35 73.3312C19.3313 73.3312 22.5375 70.2937 22.5375 67.7062C22.5375 62.3062 15.7875 62.0812 11.1188 58.0875C9.31875 56.5687 7.8 54.2062 7.8 51.2812Z" fill="#2D2500"/>
<path d="M34.0907 44.8125C34.0907 43.2375 35.3282 42 36.9032 42C37.0157 42 37.1282 42.0562 37.2407 42.0562C37.6345 42.1125 38.1407 42.1687 38.7032 42.1687C41.1782 42.1687 44.722 41.775 48.2095 41.775C49.5032 41.775 50.797 41.8312 52.0345 41.9437C53.4407 42.1125 54.5657 43.2937 54.5657 44.7562C54.5657 46.3312 53.3282 47.5687 51.7532 47.5687C51.697 47.5687 50.797 47.4562 48.8282 47.4562C48.322 47.4562 47.7595 47.4562 47.1407 47.4562C47.1407 52.1812 46.6907 59.9437 46.6907 66.525C46.6907 68.8875 46.747 71.0812 46.9157 72.8812C48.4907 72.9375 50.1782 73.05 52.0345 73.3312C53.3845 73.5562 54.397 74.6812 54.397 76.0875C54.397 77.6625 53.1595 78.9 51.5845 78.9H51.1907C49.3345 78.675 47.647 78.5625 46.072 78.5625C42.5282 78.5625 39.547 79.0125 36.4532 79.0125C34.8782 79.0125 33.697 77.775 33.697 76.2C33.697 74.625 34.9345 73.3875 36.5095 73.3875C37.8595 73.3875 39.3782 73.275 41.2345 73.1062C41.0657 71.4187 41.0095 69.3937 41.0095 67.2C41.0095 61.0125 41.4595 53.5875 41.5157 47.7375C40.897 47.7937 40.222 47.7937 39.6032 47.7937C38.5345 47.7937 37.522 47.7375 36.622 47.625C35.2157 47.4562 34.0907 46.275 34.0907 44.8125Z" fill="#2D2500"/>
<path d="M61.8439 51.2812C61.8439 46.05 67.5252 41.6625 72.6439 41.6625C76.4689 41.6625 80.6314 44.475 80.6314 46.8937C80.6314 48.4687 79.3939 49.7062 77.8189 49.7062C77.0314 49.7062 76.3002 49.425 75.7939 48.8625C74.3877 47.4 74.1064 47.2875 72.6439 47.2875C70.5064 47.2875 67.4689 49.4812 67.4689 51.2812C67.4689 55.275 74.5002 55.6687 79.0564 60.1125C80.8564 61.8562 82.2064 64.5 82.2064 67.7062C82.2064 73.5562 76.4127 78.9562 70.3939 78.9562C63.3627 78.9562 60.0439 71.5875 60.0439 70.0125C60.0439 68.4375 61.3377 67.2 62.8564 67.2C64.0377 67.2 65.1064 67.9312 65.5002 69C66.6252 71.9812 68.0314 73.3312 70.3939 73.3312C73.3752 73.3312 76.5814 70.2937 76.5814 67.7062C76.5814 62.3062 69.8314 62.0812 65.1627 58.0875C63.3627 56.5687 61.8439 54.2062 61.8439 51.2812Z" fill="#2D2500"/>
<path d="M37.64 39.2722C37.6036 39.264 37.5579 39.2542 37.5059 39.2444C37.3724 39.2194 37.1611 39.1875 36.9032 39.1875C33.7749 39.1875 31.2782 41.6842 31.2782 44.8125C31.2782 47.7736 33.5413 50.0842 36.2792 50.4165C37.0283 50.5099 37.8266 50.5675 38.6501 50.5922C38.6034 52.4173 38.5343 54.3468 38.4637 56.3215C38.4527 56.6274 38.4417 56.9344 38.4308 57.2422C38.3114 60.5986 38.197 64.0492 38.197 67.2C38.197 68.3398 38.2117 69.4557 38.2507 70.5186C37.6179 70.5552 37.0445 70.575 36.5095 70.575C33.3812 70.575 30.8845 73.0717 30.8845 76.2C30.8845 79.2531 33.2508 81.825 36.4532 81.825C38.0505 81.825 39.6087 81.7135 41.1014 81.6066C41.1658 81.602 41.2301 81.5974 41.2942 81.5928C42.8724 81.4801 44.4122 81.375 46.072 81.375C47.5134 81.375 49.086 81.478 50.8523 81.692L51.0209 81.7125H51.1907H51.5845C54.7128 81.7125 57.2095 79.2158 57.2095 76.0875C57.2095 73.2434 55.1399 70.9975 52.4968 70.557L52.4763 70.5536L52.4558 70.5505C51.4433 70.3971 50.4812 70.2909 49.565 70.2159C49.5212 69.0849 49.5032 67.8439 49.5032 66.525C49.5032 63.2879 49.614 59.7465 49.7266 56.3888C49.7361 56.1077 49.7455 55.8277 49.7549 55.549C49.8175 53.6946 49.878 51.9026 49.9154 50.2821C50.3013 50.2921 50.6089 50.3064 50.8428 50.3201C51.0535 50.3325 51.2075 50.3447 51.3091 50.3534C51.3527 50.3571 51.3865 50.3602 51.4184 50.3631L51.4375 50.3648C51.4528 50.3662 51.4796 50.3687 51.5054 50.3708C51.5184 50.3718 51.5421 50.3737 51.5704 50.3754C51.5852 50.3764 51.6598 50.3812 51.7532 50.3812C54.8815 50.3812 57.3782 47.8845 57.3782 44.7562C57.3782 41.7924 55.1109 39.4802 52.3696 39.1513L52.3294 39.1464L52.2891 39.1428C50.9618 39.0221 49.5829 38.9625 48.2095 38.9625C46.3716 38.9625 44.5374 39.0661 42.9072 39.1645C42.7747 39.1725 42.644 39.1804 42.5149 39.1882C41.0127 39.2793 39.7445 39.3562 38.7032 39.3562C38.3235 39.3562 37.9614 39.3181 37.64 39.2722ZM18.6 38.85C15.2849 38.85 11.9561 40.2451 9.45917 42.367C6.96187 44.4893 4.9875 47.6183 4.9875 51.2812C4.9875 55.228 7.03545 58.3191 9.29756 60.2307C10.6998 61.4288 12.2109 62.3054 13.5802 63.0139C14.1875 63.3281 14.7927 63.622 15.3476 63.8914C15.4171 63.9252 15.4858 63.9586 15.5537 63.9916C16.179 64.2956 16.7322 64.5677 17.2391 64.8424C18.2813 65.407 18.8936 65.8626 19.2535 66.2924C19.5389 66.6333 19.725 67.0219 19.725 67.7062C19.725 67.9223 19.5091 68.634 18.6551 69.4215C17.8367 70.1762 16.9392 70.5187 16.35 70.5187C15.7745 70.5187 15.5302 70.3821 15.3226 70.1949C15.0178 69.9201 14.5843 69.3206 14.0912 68.0166C13.2706 65.8039 11.1199 64.3875 8.8125 64.3875C5.77715 64.3875 3.1875 66.8477 3.1875 70.0125C3.1875 71.0445 3.61833 72.2638 4.07471 73.2528C4.5901 74.3697 5.3539 75.6537 6.38254 76.8813C8.43645 79.3325 11.7471 81.7687 16.35 81.7687C20.1851 81.7687 23.806 80.0648 26.4458 77.5684C29.0827 75.0747 30.975 71.5618 30.975 67.7062C30.975 63.6865 29.2779 60.3305 26.973 58.0958C24.6606 55.8419 21.7857 54.4637 19.6936 53.4607C19.3603 53.301 19.0469 53.1507 18.7588 53.008C17.5915 52.4296 16.899 52.0171 16.4929 51.6456C16.3931 51.5543 16.3312 51.4857 16.2932 51.434C16.4142 51.2783 16.6159 51.0722 16.9034 50.8557C17.2272 50.6117 17.5903 50.4071 17.9328 50.2703C18.29 50.1276 18.5198 50.1 18.6 50.1C18.7912 50.1 18.9227 50.1038 19.0088 50.1078C19.0117 50.1103 19.0146 50.1129 19.0176 50.1155C19.1633 50.2431 19.3667 50.4423 19.697 50.7852C20.8166 52.0033 22.34 52.5187 23.775 52.5187C26.9033 52.5187 29.4 50.022 29.4 46.8937C29.4 45.4859 28.8052 44.278 28.1325 43.3753C27.4462 42.4545 26.545 41.6643 25.5807 41.0259C23.6748 39.7642 21.1465 38.85 18.6 38.85ZM16.2375 51.2812C16.2375 51.2967 16.2372 51.3116 16.2367 51.326C16.2327 51.3069 16.2351 51.2951 16.2366 51.2876C16.2371 51.285 16.2375 51.2829 16.2375 51.2812ZM16.191 51.5858C16.1877 51.5941 16.1855 51.5983 16.1853 51.5983C16.185 51.5983 16.1867 51.5941 16.191 51.5858ZM72.6439 38.85C69.3288 38.85 66 40.2451 63.5031 42.367C61.0058 44.4893 59.0314 47.6183 59.0314 51.2812C59.0314 55.2281 61.0795 58.3193 63.3417 60.2309C64.7439 61.4289 66.2549 62.3055 67.6241 63.0139C68.2314 63.3281 68.8366 63.622 69.3914 63.8914C69.461 63.9252 69.5298 63.9586 69.5976 63.9916C70.223 64.2956 70.7761 64.5677 71.2831 64.8424C72.3252 65.407 72.9376 65.8626 73.2974 66.2924C73.5829 66.6333 73.7689 67.0219 73.7689 67.7062C73.7689 67.9223 73.553 68.634 72.699 69.4215C71.8806 70.1762 70.9832 70.5187 70.3939 70.5187C69.8184 70.5187 69.5742 70.3821 69.3665 70.1949C69.0617 69.92 68.6281 69.3203 68.1348 68.0155C67.3138 65.8034 65.1635 64.3875 62.8564 64.3875C59.8211 64.3875 57.2314 66.8477 57.2314 70.0125C57.2314 71.0445 57.6623 72.2638 58.1187 73.2528C58.634 74.3697 59.3978 75.6537 60.4265 76.8813C62.4804 79.3325 65.7911 81.7687 70.3939 81.7687C74.229 81.7687 77.8499 80.0648 80.4897 77.5684C83.1266 75.0747 85.0189 71.5618 85.0189 67.7062C85.0189 63.6861 83.3215 60.3298 81.0162 58.0952C78.7039 55.8416 75.8294 54.4636 73.7375 53.4607C73.4042 53.301 73.0908 53.1507 72.8027 53.008C71.6355 52.4296 70.943 52.0171 70.5369 51.6456C70.437 51.5543 70.3751 51.4857 70.3371 51.434C70.4581 51.2783 70.6599 51.0722 70.9473 50.8557C71.2711 50.6117 71.6342 50.4071 71.9768 50.2703C72.334 50.1276 72.5637 50.1 72.6439 50.1C72.8351 50.1 72.9666 50.1038 73.0527 50.1078C73.0556 50.1103 73.0586 50.1129 73.0616 50.1155C73.2072 50.243 73.4106 50.4422 73.7409 50.7851C74.8605 52.0033 76.3839 52.5187 77.8189 52.5187C80.9473 52.5187 83.4439 50.022 83.4439 46.8937C83.4439 45.4859 82.8492 44.278 82.1764 43.3753C81.4901 42.4545 80.5889 41.6643 79.6246 41.0259C77.7188 39.7642 75.1904 38.85 72.6439 38.85ZM70.2814 51.2812C70.2814 51.2967 70.2812 51.3116 70.2806 51.3259C70.2766 51.3069 70.279 51.2951 70.2805 51.2876C70.281 51.285 70.2814 51.2829 70.2814 51.2812ZM70.2349 51.5858C70.2316 51.5941 70.2295 51.5983 70.2292 51.5983C70.2289 51.5983 70.2306 51.5942 70.2349 51.5858Z" stroke="#EACD43" stroke-width="5.625"/>
</g>
<g filter="url(#filter1_d_2028_24)">
<path d="M48.6291 13.8018C50.2389 13.8556 51.8942 13.844 53.5594 13.8879C52.9942 12.332 51.8939 11.6152 50.842 11.8042C50.0116 11.9533 49.1599 12.6206 48.6291 13.8018ZM42.1221 19.2567C39.7073 19.1761 37.2826 19.0401 34.6364 18.9438C35.301 21.0533 37.7317 23.1314 39.6694 22.7833C40.8321 22.5745 41.7902 21.5452 42.1221 19.2567ZM62.7915 16.2874C63.0699 17.8376 62.0707 19.2744 60.5205 19.5528C60.2436 19.6025 60.1883 19.6124 58.9859 19.5998C58.651 20.9172 58.2054 22.2546 57.5482 23.6871C57.1792 24.4963 56.4383 25.1437 55.4971 25.3128C53.9469 25.5912 52.5101 24.5919 52.2317 23.0417C52.1322 22.4881 52.2543 21.8947 52.4515 21.402C52.7297 20.7234 53.0178 20.1002 53.1952 19.4968C51.3639 19.4828 49.5226 19.4135 47.7467 19.3895C47.0758 24.8821 44.1418 27.638 40.8199 28.2346C35.8925 29.1195 30.0291 25.4292 28.9452 19.3945C28.8955 19.1177 28.8557 18.8962 28.8713 18.6648C27.2515 18.5557 25.4103 18.4863 25.0125 16.2718C24.7341 14.7216 25.7333 13.2848 27.2835 13.0064C27.6157 12.9467 27.6157 12.9467 29.6884 13.0317C29.7338 12.9664 31.7264 8.15078 34.1071 7.7232C35.6573 7.44478 37.104 8.4994 37.3724 9.99423C37.5315 10.8801 37.2832 11.7248 36.7083 12.3424C36.4259 12.6788 36.088 13.0253 35.8609 13.3518C38.2757 13.4325 40.5798 13.533 42.7632 13.598C43.8643 9.22832 46.7019 6.88989 49.7469 6.34299C53.8438 5.60716 58.296 8.12223 59.2705 13.5479C59.3003 13.714 59.3202 13.8247 59.3501 13.9908C60.2657 13.9978 62.3838 14.0175 62.7915 16.2874Z" fill="#2D2500"/>
<path d="M55.9942 28.081C57.9359 27.7322 59.3944 26.4145 60.1057 24.8574C60.5091 23.9777 60.8414 23.1294 61.1205 22.3016C64.1414 21.7032 66.1065 18.8348 65.5597 15.7902C65.1702 13.6215 63.8293 12.3136 62.3429 11.6943C62.1122 11.5982 61.881 11.5201 61.6546 11.4566C59.8506 5.56305 54.428 2.64475 49.2497 3.57478C45.6334 4.22428 42.4513 6.68209 40.7626 10.717C40.5854 10.7106 40.4076 10.704 40.2291 10.6974C40.2418 10.3001 40.2127 9.89801 40.1407 9.49705C39.6041 6.5095 36.7248 4.39555 33.6099 4.955C32.2129 5.20589 31.1492 6.02906 30.4487 6.71658C29.7135 7.43815 29.1078 8.27908 28.6459 9.00855C28.3936 9.40687 28.1685 9.79712 27.9742 10.1541C27.9348 10.1534 27.8978 10.1528 27.8628 10.1525C27.6711 10.1504 27.4703 10.1529 27.2578 10.1719C27.0512 10.1903 26.8819 10.2209 26.8009 10.2355L26.7864 10.2382C23.7073 10.7912 21.6913 13.6899 22.2443 16.7689C22.4116 17.7003 22.7634 18.5713 23.3531 19.3138C23.9445 20.0585 24.666 20.5363 25.3683 20.8397C25.7319 20.9968 26.1095 21.1122 26.478 21.198C28.3892 27.9586 35.2071 32.1001 41.3171 31.0028C44.9673 30.3472 47.9687 27.8794 49.5304 23.8598C50.2206 26.7566 53.0235 28.6145 55.9942 28.081Z" stroke="#EACD43" stroke-width="5.625"/>
</g>
<defs>
<filter id="filter0_d_2028_24" x="0.375" y="36.0375" width="88.9565" height="50.1" filterUnits="userSpaceOnUse" color-interpolation-filters="sRGB">
<feFlood flood-opacity="0" result="BackgroundImageFix"/>
<feColorMatrix in="SourceAlpha" type="matrix" values="0 0 0 0 0 0 0 0 0 0 0 0 0 0 0 0 0 0 127 0" result="hardAlpha"/>
<feOffset dx="1.5" dy="1.5"/>
<feComposite in2="hardAlpha" operator="out"/>
<feColorMatrix type="matrix" values="0 0 0 0 0.525 0 0 0 0 0.442416 0 0 0 0 0.065625 0 0 0 1 0"/>
<feBlend mode="normal" in2="BackgroundImageFix" result="effect1_dropShadow_2028_24"/>
<feBlend mode="normal" in="SourceGraphic" in2="effect1_dropShadow_2028_24" result="shape"/>
</filter>
<filter id="filter1_d_2028_24" x="19.3401" y="0.591675" width="50.6238" height="34.9" filterUnits="userSpaceOnUse" color-interpolation-filters="sRGB">
<feFlood flood-opacity="0" result="BackgroundImageFix"/>
<feColorMatrix in="SourceAlpha" type="matrix" values="0 0 0 0 0 0 0 0 0 0 0 0 0 0 0 0 0 0 127 0" result="hardAlpha"/>
<feOffset dx="1.5" dy="1.5"/>
<feComposite in2="hardAlpha" operator="out"/>
<feColorMatrix type="matrix" values="0 0 0 0 0.525 0 0 0 0 0.442416 0 0 0 0 0.065625 0 0 0 1 0"/>
<feBlend mode="normal" in2="BackgroundImageFix" result="effect1_dropShadow_2028_24"/>
<feBlend mode="normal" in="SourceGraphic" in2="effect1_dropShadow_2028_24" result="shape"/>
</filter>
</defs>
</svg>
