<svg width="343" height="438" viewBox="0 0 343 438" fill="none" xmlns="http://www.w3.org/2000/svg">
<g filter="url(#filter0_d_162_1034)">
<rect x="4" y="33.7148" width="292" height="398" rx="12" transform="rotate(-5.84071 4 33.7148)" fill="#FFE984" shape-rendering="crispEdges"/>
<rect x="4" y="33.7148" width="292" height="398" rx="12" transform="rotate(-5.84071 4 33.7148)" stroke="#F0DA74" stroke-width="10" shape-rendering="crispEdges"/>
<path d="M46.4986 80.7462C46.3667 79.4569 47.3049 78.2512 48.6419 78.1144C49.8357 77.9923 50.9313 78.797 51.2395 79.9235C51.6639 81.7136 52.9212 86.4583 53.4537 91.6631C53.991 96.9157 53.8034 102.628 51.3611 106.111C50.2661 107.671 48.5444 108.763 46.7298 108.949C39.1375 109.726 37.0682 100.818 36.9999 100.15C36.868 98.8603 37.8061 97.6545 39.1432 97.5178C40.3369 97.3957 41.3799 98.1575 41.6881 99.284C42.0734 100.692 43.1376 104.491 46.2414 104.174C47.8649 104.008 49.509 100.269 48.6786 92.1516C48.366 89.0955 47.7034 85.448 46.5855 81.1233C46.5708 80.9801 46.5133 80.8894 46.4986 80.7462ZM43.8499 73.2488C43.6838 71.6253 44.8939 70.247 46.4219 70.0907C48.0932 69.9197 49.5767 71.2155 49.7379 72.7913C49.8991 74.367 48.7417 75.7882 47.166 75.9494C45.5424 76.1155 44.0111 74.8246 43.8499 73.2488ZM54.7664 87.331C53.9995 79.8341 58.2368 75.9749 63.2029 75.4669C67.6914 75.0078 72.5268 77.9389 73.2791 85.2925C73.7577 89.9721 69.5666 95.2259 64.6483 95.729C59.5867 96.2468 55.3428 92.9656 54.7664 87.331ZM68.504 85.781C68.3428 84.2052 67.5591 79.8463 63.6913 80.242C61.5903 80.4569 59.0139 81.6855 59.5415 86.8426C59.6685 88.0841 60.3875 91.3398 64.1598 90.9539C66.4996 90.7146 68.6945 87.6433 68.504 85.781ZM82.822 93.9664C80.4822 94.2058 76.3491 93.4223 75.4942 85.0659C75.2598 82.7739 75.2679 80.0228 75.5516 76.6645C75.6254 75.4989 76.4925 74.5417 77.6862 74.4196C79.0232 74.2828 80.1812 75.2259 80.318 76.5629C80.3522 76.8972 79.9654 81.1345 80.3268 84.6681C80.4783 86.1484 80.9488 89.333 82.3336 89.1914C83.3841 89.0839 84.2599 87.7398 84.3298 87.0089C84.4085 85.8911 85.3233 84.929 86.4694 84.8118C87.8064 84.675 88.9644 85.618 89.1011 86.9551C89.2819 88.7218 87.6449 93.4731 82.822 93.9664ZM75.9758 69.9625C75.8097 68.339 77.0197 66.9607 78.5477 66.8044C80.219 66.6334 81.7026 67.9292 81.8638 69.505C82.025 71.0807 80.8676 72.5019 79.2918 72.6631C77.6683 72.8292 76.137 71.5383 75.9758 69.9625ZM107.113 91.6264C105.776 91.7632 104.618 90.8201 104.481 89.4831L104.471 89.3876C104.388 88.5758 104.324 87.4727 104.201 86.2789C103.82 82.5543 103.036 77.7131 101.585 76.2692C101.375 76.0977 101.322 76.0548 101.227 76.0646C101.227 76.0646 101.179 76.0695 101.131 76.0744C97.9318 76.4016 97.2553 83.4672 97.6575 90.2293C97.7416 91.5235 96.7937 92.6337 95.5044 92.7656C94.1674 92.9024 93.0094 91.9593 92.8726 90.6223C92.6724 88.6645 92.4249 84.8298 91.9364 80.0547C91.7654 78.3834 91.5749 76.5212 91.3318 74.616L91.3269 74.5683C91.195 73.279 92.0903 72.1259 93.3747 71.9463L93.4225 71.9414C94.6162 71.8193 95.7596 72.6191 96.02 73.7504C97.1443 72.4774 98.7803 71.4898 100.643 71.2993C106.516 70.6985 108.258 78.7711 108.923 85.2652C109.064 86.6499 109.153 87.9919 109.266 89.0901C109.35 90.3843 108.402 91.4945 107.113 91.6264ZM129.363 78.5904C128.743 72.5261 129.575 68.8704 129.111 64.3341C128.979 63.0448 129.917 61.8391 131.254 61.7023C131.971 61.629 133.772 61.7826 134.079 64.7909C134.158 65.5549 134.132 66.7156 134.029 69.9588C134.559 69.9528 135.084 69.8991 135.657 69.8405C136.756 69.7282 137.897 69.5632 138.852 69.4655C140.141 69.3336 141.304 70.3244 141.436 71.6137C141.573 72.9507 140.63 74.1087 139.293 74.2454C139.245 74.2503 137.531 74.4739 135.955 74.6351C135.191 74.7133 134.475 74.7865 133.992 74.7876C134.024 76.0389 134.083 77.0943 134.181 78.0494C134.67 82.8244 135.838 84.3454 136.364 84.2917C137.128 84.2135 139.469 82.5747 139.274 80.6647C139.2 79.9484 138.952 79.8773 138.879 79.1611C138.742 77.8241 139.733 76.6612 141.022 76.5293C142.693 76.3584 143.819 77.9319 144.029 79.9852C144.459 84.1873 141.102 88.632 136.852 89.0667C134.465 89.311 130.36 88.3316 129.363 78.5904ZM146.302 77.9674C145.78 72.8581 149.333 66.5598 155.35 65.9443C158.597 65.6122 160.852 67.8423 161.13 70.5641C161.565 74.8139 157.948 78.6096 153.507 79.0639C152.791 79.1372 152.065 79.1149 151.329 78.9972C152.148 81.8085 154.937 81.7162 155.51 81.6576C156.942 81.5111 158.611 80.3753 159.405 78.7019C159.762 77.9416 160.482 77.4337 161.341 77.3458C162.678 77.209 163.836 78.1521 163.973 79.4891C164.154 81.2559 161.06 85.9149 155.998 86.4327C150.984 86.9456 146.884 83.6498 146.302 77.9674ZM156.355 71.0525C156.335 70.8615 156.316 70.6705 155.838 70.7194C154.74 70.8317 152.821 71.414 151.658 74.1868C152.107 74.3339 152.546 74.3854 152.976 74.3415C155.125 74.1217 156.453 72.0076 156.355 71.0525ZM180.498 75.2896C180.816 78.3935 176.998 83.995 171.889 84.5177C166.541 85.0648 165.798 77.8067 165.456 74.4641C164.865 68.6862 165.882 60.2349 165.33 54.839C165.194 53.502 166.137 52.344 167.474 52.2072C168.811 52.0705 169.969 53.0135 170.105 54.3505C170.76 60.7492 169.757 69.3438 170.231 73.9756C170.407 75.6947 170.82 78.7887 171.543 79.728C173.63 79.3698 175.678 76.7478 175.737 75.439C175.81 74.2734 176.673 73.2685 177.866 73.1463C179.203 73.0096 180.361 73.9526 180.498 75.2896ZM182.63 74.2513C182.108 69.1419 185.661 62.8436 191.678 62.2282C194.925 61.896 197.18 64.1262 197.458 66.8479C197.893 71.0978 194.276 74.8935 189.835 75.3478C189.119 75.421 188.393 75.3988 187.657 75.2811C188.476 78.0924 191.265 78.0001 191.838 77.9415C193.27 77.7949 194.939 76.6592 195.733 74.9857C196.09 74.2255 196.81 73.7176 197.669 73.6297C199.006 73.4929 200.164 74.4359 200.301 75.773C200.482 77.5397 197.388 82.1988 192.326 82.7166C187.312 83.2294 183.212 79.9336 182.63 74.2513ZM192.683 67.3364C192.663 67.1454 192.644 66.9544 192.166 67.0033C191.068 67.1156 189.149 67.6979 187.985 70.4707C188.435 70.6177 188.874 70.6693 189.304 70.6253C191.453 70.4055 192.781 68.2914 192.683 67.3364ZM201.045 73.4291C200.498 68.081 204.347 61.3665 209.838 60.8047C213.61 60.4189 216.878 62.6419 217.32 64.1406C217.743 64.966 219.061 73.6126 219.491 77.8147C219.862 81.4438 219.622 84.7495 218.066 87.4659C216.51 90.1823 213.601 91.9274 210.019 92.2938C202.332 93.0802 201.415 86.9496 201.322 86.0424C201.19 84.7531 202.128 83.5474 203.465 83.4106C204.707 83.2836 205.86 84.1789 206.083 85.4107C206.402 87.115 206.952 87.7824 209.531 87.5187C211.345 87.3331 215.548 86.9032 214.726 78.3987C213.186 79.8589 211.206 80.7852 209.105 81.0001C205.811 81.3372 201.67 79.5412 201.045 73.4291ZM208.617 76.2251C211.768 75.9027 213.682 72.9084 213.203 68.2289C213.139 67.6081 213.018 66.8967 212.897 66.1853C212.223 65.7236 211.377 65.4724 210.326 65.5798C207.843 65.8338 205.522 70.0278 205.82 72.9406C205.957 74.2776 206.346 75.2511 206.777 75.6895C207.208 76.128 207.614 76.3276 208.617 76.2251ZM235.093 64.5904C235.225 65.8796 234.282 67.0376 232.945 67.1744C231.799 67.2916 230.761 66.5775 230.415 65.5514C229.655 63.3131 228.804 63.0142 228.279 63.0679C224.697 63.4342 224.655 71.979 224.996 77.2033C225.08 78.4975 224.132 79.6077 222.843 79.7396C221.506 79.8764 220.348 78.9333 220.211 77.5963C220.011 75.6385 219.764 71.8038 219.275 67.0287C219.104 65.3574 218.914 63.4951 218.671 61.59L218.666 61.5422C218.534 60.253 219.429 59.0999 220.713 58.9202L220.761 58.9154C221.907 58.7981 222.993 59.5073 223.296 60.586C224.426 59.3608 225.976 58.4784 227.79 58.2928C232.422 57.819 234.942 63.1101 235.093 64.5904ZM240.776 64.2986C239.439 64.4353 238.281 63.4923 238.144 62.1553C238.08 61.5345 238.261 60.9371 238.646 60.4633C240.737 57.7887 243.06 56.4413 245.209 56.2215C248.122 55.9236 250.81 57.6751 252.383 60.7951C253.362 62.818 254.359 66.4313 254.667 69.4396C254.887 71.5884 254.743 73.4849 254.047 74.2316C254.047 74.2316 250.353 77.2633 245.434 77.7664C240.707 78.25 237.702 75.7589 237.321 72.0343C236.872 67.6412 240.494 64.3756 244.839 63.9311C246.033 63.809 247.294 63.873 248.585 64.2235C247.84 62.1285 246.891 60.8745 245.602 61.0064C244.694 61.0992 243.66 61.8323 242.421 63.4065C242.041 63.9279 241.444 64.2302 240.776 64.2986ZM245.371 68.6536C244.559 68.7366 241.871 69.3493 242.096 71.5458C242.238 72.9306 243.37 73.1525 244.946 72.9913C247.047 72.7764 248.559 71.9944 249.79 71.2895C249.193 69.2276 247.185 68.468 245.371 68.6536ZM267.313 60.8119C266.458 64.7112 266.809 70.0311 267.082 72.7051C267.219 74.0422 266.276 75.2002 264.939 75.3369C263.698 75.4639 262.502 74.6213 262.317 73.2891C262.206 72.6732 262.133 71.957 262.054 71.193C261.932 69.9992 261.796 68.6622 261.659 67.3251C261.454 65.3196 261.201 63.319 260.829 61.5717C260.188 65.2079 260.548 70.1408 260.169 73.9913C260.043 75.114 259.171 76.0235 258.025 76.1407C256.688 76.2775 255.53 75.3344 255.393 73.9974C255.193 72.0396 254.946 68.2049 254.457 63.4298C254.286 61.7585 254.096 59.8962 253.852 57.9911L253.848 57.9433C253.716 56.6541 254.611 55.501 255.895 55.3213L255.943 55.3165C256.803 55.2285 257.563 55.585 258.061 56.2096C258.719 55.5633 259.635 55.0836 260.637 54.981C261.067 54.9371 262.562 54.9289 263.826 56.4401C264.288 55.7656 265.322 54.5501 266.993 54.3791C270.574 54.0128 272.323 58.3695 273.183 66.7736C273.353 68.4449 273.496 70.312 273.601 72.2796C273.68 73.526 272.737 74.684 271.448 74.8159C270.111 74.9526 268.953 74.0096 268.816 72.6726L268.801 72.5293C268.693 70.9964 268.55 69.1292 268.355 67.2192C268.115 64.8794 267.781 62.5494 267.313 60.8119Z" fill="#2D2500"/>
<g clip-path="url(#clip0_162_1034)">
<path d="M93.2258 184.249C91.7957 184.935 90.4333 185.755 89.1567 186.698C88.7515 186.955 88.4136 187.306 88.1715 187.722C87.9294 188.138 87.79 188.606 87.7652 189.088C87.7857 189.962 88.3283 190.784 89.3735 191.529C90.2382 192.103 91.1567 192.591 92.1158 192.985C92.8542 193.315 93.6032 193.621 94.3521 193.927C95.4244 194.365 96.533 194.816 97.5759 195.335C111.715 202.345 124.562 208.529 138.433 213.168C138.453 213.649 138.471 214.128 138.487 214.606C138.534 215.956 138.583 217.351 138.721 218.719C138.93 220.785 139.133 222.853 139.331 224.922C139.968 231.484 140.626 238.268 141.528 244.914C141.853 247.31 142.886 248.942 144.437 249.508C146.067 250.1 148.019 249.458 149.933 247.694C150.624 247.058 151.326 246.35 152.078 245.531C155.38 241.936 158.676 238.335 162.003 234.7L165.019 231.405C165.046 231.421 165.072 231.438 165.097 231.455L168.436 233.798C172.238 236.463 176.169 239.219 180.011 241.964C181.105 242.744 182.205 243.519 183.31 244.288C186.679 246.647 190.165 249.087 193.346 251.757C195.031 253.171 196.588 253.757 198.369 253.575C199.136 253.485 199.888 253.293 200.604 253.004C203.13 252.026 204.643 250.256 205.512 247.271C208.784 236.022 212.142 224.593 215.389 213.541C218.054 204.463 220.716 195.384 223.375 186.304C229.11 166.81 233.752 147.005 237.279 126.983C237.716 124.658 237.95 122.298 237.976 119.931C238.01 119.38 237.92 118.828 237.714 118.316C237.507 117.804 237.188 117.345 236.782 116.973C236.302 116.619 235.749 116.378 235.165 116.266C234.58 116.155 233.979 116.177 233.404 116.33C232.64 116.503 231.895 116.754 231.182 117.081L231.085 117.121C229.477 117.789 227.862 118.443 226.248 119.098C222.497 120.619 218.618 122.192 214.875 123.915C187.838 136.369 160.491 149.713 133.593 163.578C125.834 167.576 117.932 171.616 110.289 175.521C104.597 178.426 98.9096 181.335 93.2258 184.249ZM149.584 208.35C150.993 206.895 152.33 205.519 153.713 204.213C159.134 199.088 164.561 193.969 169.995 188.859C180.67 178.804 191.709 168.408 202.492 158.102C205.789 154.953 208.869 151.477 211.848 148.121C212.871 146.97 213.893 145.815 214.925 144.673C215.749 143.762 217.126 142.239 216.011 139.651C215.975 139.566 215.922 139.49 215.855 139.427C215.788 139.364 215.709 139.316 215.623 139.286C215.537 139.256 215.445 139.243 215.354 139.25C215.263 139.257 215.174 139.282 215.093 139.324C214.756 139.503 214.429 139.664 214.114 139.817C213.457 140.121 212.823 140.472 212.216 140.868C191.692 154.978 174.375 172.498 157.629 189.442C153.842 193.273 150.303 197.188 146.56 201.328C144.971 203.086 143.365 204.853 141.741 206.629L98.6754 188.554C98.8956 188.384 99.1295 188.233 99.3747 188.102C105.681 184.944 111.983 181.777 118.282 178.601C133.706 170.838 149.659 162.809 165.437 155.11C179.489 148.253 193.898 141.529 207.833 135.026C212.467 132.864 217.099 130.699 221.73 128.531C223.524 127.69 225.35 126.988 227.283 126.247C227.796 126.05 228.31 125.852 228.827 125.651C223.434 152.015 215.785 178.115 208.384 203.37C204.494 216.64 200.476 230.352 196.805 244.021C182.039 234.363 167.617 224.031 153.666 214.034C151.781 212.682 149.893 211.33 148.001 209.978C148.54 209.423 149.066 208.881 149.582 208.351L149.584 208.35ZM159.155 227.061L148.478 238.237L145.329 216.611L159.155 227.061Z" fill="#2D2500"/>
</g>
</g>
<defs>
<filter id="filter0_d_162_1034" x="0.157715" y="0.157562" width="342.67" height="437.334" filterUnits="userSpaceOnUse" color-interpolation-filters="sRGB">
<feFlood flood-opacity="0" result="BackgroundImageFix"/>
<feColorMatrix in="SourceAlpha" type="matrix" values="0 0 0 0 0 0 0 0 0 0 0 0 0 0 0 0 0 0 127 0" result="hardAlpha"/>
<feOffset dx="4" dy="4"/>
<feComposite in2="hardAlpha" operator="out"/>
<feColorMatrix type="matrix" values="0 0 0 0 0.795833 0 0 0 0 0.710587 0 0 0 0 0.321649 0 0 0 1 0"/>
<feBlend mode="normal" in2="BackgroundImageFix" result="effect1_dropShadow_162_1034"/>
<feBlend mode="normal" in="SourceGraphic" in2="effect1_dropShadow_162_1034" result="shape"/>
</filter>
<clipPath id="clip0_162_1034">
<rect width="157" height="134" fill="white" transform="translate(81.8345 131.301) rotate(-5.84071)"/>
</clipPath>
</defs>
</svg>
