<svg width="1592" height="126" viewBox="0 0 1592 126" fill="none" xmlns="http://www.w3.org/2000/svg">
<path fill-rule="evenodd" clip-rule="evenodd" d="M145.821 26.9956C151.006 27.5539 156.148 28.1076 161.155 28.4374C180.329 29.7004 196.147 25.185 213.487 20.235C216.834 19.2795 220.238 18.3078 223.734 17.3584C242.126 12.3631 257.412 13.0625 275.701 13.8994C276.951 13.9566 278.215 14.0145 279.494 14.0712C324.32 16.0571 370.651 12.9177 415.774 9.86009C422.731 9.38867 429.66 8.9192 436.549 8.47075C478.043 5.76996 517.388 4.01479 558.662 10.1752C565.942 11.2617 571.799 12.431 577.115 13.4922C588.924 15.8496 598.06 17.6737 614.179 16.8714C625.939 16.2861 635.718 14.1746 645.699 12.0196C653.753 10.2807 661.938 8.51344 671.401 7.49677C699.988 4.42543 718.77 10.1188 744.571 20.4021C761.309 27.0726 770.692 25.1442 786.894 21.8145C787.973 21.5927 789.083 21.3647 790.227 21.1325C808.49 17.4271 820.103 17.9592 837.343 24.785C859.001 33.3598 873.513 36.5392 897.365 32.2116C912.122 29.5341 926.55 25.3836 940.978 21.2332C959.213 15.9874 977.448 10.7417 996.346 8.47075C1023.22 5.24155 1053.12 9.67908 1079.92 13.6553C1081.41 13.877 1082.9 14.0973 1084.37 14.3147C1103.21 17.094 1121.51 21.9557 1139.8 26.8102C1157.83 31.6001 1175.84 36.3829 1194.31 39.1512C1215.45 42.32 1236.2 40.1257 1256.92 37.9356C1275.68 35.9513 1294.42 33.9704 1313.38 35.9858C1320.51 36.7442 1327.02 38.2518 1333.42 39.7366C1343.65 42.1051 1353.62 44.4156 1365.49 43.5342C1382.87 42.243 1399.65 38.1171 1416.43 33.9894C1428.27 31.0777 1440.11 28.1651 1452.17 26.246C1466.94 23.8958 1468.44 25.3453 1473.02 29.7908C1474.73 31.4516 1476.87 33.5305 1480.29 35.9858C1491.33 43.8916 1507.29 40.3113 1519.97 37.4673C1521.53 37.117 1523.04 36.7779 1524.49 36.4728C1526.97 35.949 1530.1 34.9675 1533.57 33.8766C1546.46 29.8266 1564.16 24.2677 1571.73 35.0118C1575.49 40.3582 1576.77 48.0191 1577.8 54.1943L1577.81 54.1956L1577.94 54.9785C1581.54 76.437 1583.7 98.1985 1585.1 120H12C12.4459 119.387 12.897 118.775 13.3535 118.166C19.9118 109.406 27.8935 102.508 35.8617 95.6205C42.8093 89.6154 49.7468 83.6191 55.7218 76.4061C61.5034 69.4265 61.6705 62.6525 61.8527 55.2665C61.9244 52.3599 61.9985 49.3586 62.4179 46.2126C62.8291 43.1285 65.9861 42.5582 69.4212 41.9375C72.5508 41.3721 75.9112 40.765 77.6364 38.1772L75.4449 46.9431C91.9946 21.1992 119.46 24.1569 145.821 26.9956Z" fill="#EACC43"/>
<path d="M161.155 28.4374L160.761 34.4244L160.761 34.4244L161.155 28.4374ZM145.821 26.9956L145.179 32.9611L145.179 32.9611L145.821 26.9956ZM213.487 20.235L211.84 14.4654L211.84 14.4654L213.487 20.235ZM223.734 17.3584L222.161 11.5681L222.161 11.5681L223.734 17.3584ZM275.701 13.8994L275.976 7.90572L275.976 7.90572L275.701 13.8994ZM279.494 14.0712L279.76 8.07704L279.76 8.07704L279.494 14.0712ZM415.774 9.86009L416.18 15.8464L416.18 15.8464L415.774 9.86009ZM436.549 8.47075L436.16 2.48342L436.16 2.48342L436.549 8.47075ZM558.662 10.1752L557.777 16.1095L557.777 16.1095L558.662 10.1752ZM577.115 13.4922L575.94 19.3761L575.94 19.3761L577.115 13.4922ZM614.179 16.8714L613.881 10.8788L613.881 10.8788L614.179 16.8714ZM645.699 12.0196L646.965 17.8845L646.965 17.8845L645.699 12.0196ZM671.401 7.49677L672.042 13.4624L672.042 13.4624L671.401 7.49677ZM744.571 20.4021L742.35 25.9757L742.35 25.9757L744.571 20.4021ZM786.894 21.8145L788.102 27.6917L788.102 27.6917L786.894 21.8145ZM790.227 21.1325L789.034 15.2524L789.034 15.2524L790.227 21.1325ZM837.343 24.785L835.135 30.3637L835.135 30.3637L837.343 24.785ZM897.365 32.2116L898.436 38.1152L898.436 38.1152L897.365 32.2116ZM940.978 21.2332L942.637 26.9993L942.637 26.9993L940.978 21.2332ZM996.346 8.47075L995.63 2.51361L995.63 2.51361L996.346 8.47075ZM1079.92 13.6553L1079.04 19.5903L1079.04 19.5903L1079.92 13.6553ZM1084.37 14.3147L1085.25 8.37891L1085.25 8.37891L1084.37 14.3147ZM1139.8 26.8102L1141.34 21.0112L1141.34 21.0112L1139.8 26.8102ZM1194.31 39.1512L1193.42 45.0849L1193.42 45.0849L1194.31 39.1512ZM1256.92 37.9356L1256.28 31.9689L1256.28 31.9689L1256.92 37.9356ZM1313.38 35.9858L1312.74 41.9522L1312.74 41.9522L1313.38 35.9858ZM1333.42 39.7366L1332.07 45.5817L1332.07 45.5817L1333.42 39.7366ZM1365.49 43.5342L1365.04 37.5506L1365.04 37.5506L1365.49 43.5342ZM1416.43 33.9894L1415 28.1631L1415 28.1631L1416.43 33.9894ZM1452.17 26.246L1453.11 32.1714L1453.11 32.1714L1452.17 26.246ZM1473.02 29.7908L1477.19 25.4855L1477.19 25.4854L1473.02 29.7908ZM1480.29 35.9858L1476.8 40.8627L1476.8 40.8627L1480.29 35.9858ZM1519.97 37.4673L1521.28 43.3218L1521.28 43.3218L1519.97 37.4673ZM1524.49 36.4728L1523.25 30.6019L1523.25 30.6019L1524.49 36.4728ZM1533.57 33.8766L1535.37 39.6008L1535.37 39.6008L1533.57 33.8766ZM1571.73 35.0118L1566.82 38.4675L1566.82 38.4676L1571.73 35.0118ZM1577.8 54.1943L1571.89 55.1827L1571.94 55.5239L1572.04 55.8563L1577.8 54.1943ZM1577.81 54.1956L1583.72 53.2055L1583.67 52.8651L1583.57 52.5335L1577.81 54.1956ZM1577.94 54.9785L1572.02 55.9685L1572.02 55.9719L1577.94 54.9785ZM1585.1 120V126H1591.49L1591.08 119.617L1585.1 120ZM12 120L7.14713 116.472L0.219261 126H12V120ZM13.3535 118.166L18.1564 121.762L18.1564 121.762L13.3535 118.166ZM35.8617 95.6205L39.7852 100.16L39.7852 100.16L35.8617 95.6205ZM55.7218 76.4061L51.1012 72.5786L51.1012 72.5786L55.7218 76.4061ZM61.8527 55.2665L67.8509 55.4145L67.8509 55.4145L61.8527 55.2665ZM62.4179 46.2126L68.3653 47.0056L68.3653 47.0056L62.4179 46.2126ZM69.4212 41.9375L68.3545 36.0331L68.3545 36.0331L69.4212 41.9375ZM77.6364 38.1772L83.4573 39.6325L72.6441 34.849L77.6364 38.1772ZM75.4449 46.9431L69.6241 45.4879L80.492 50.1876L75.4449 46.9431ZM161.55 22.4504C156.688 22.1302 151.672 21.5909 146.464 21.0301L145.179 32.9611C150.34 33.5168 155.607 34.085 160.761 34.4244L161.55 22.4504ZM211.84 14.4654C194.414 19.44 179.545 23.6357 161.55 22.4504L160.761 34.4244C181.114 35.765 197.88 30.9299 215.134 26.0045L211.84 14.4654ZM222.161 11.5681C218.622 12.5293 215.182 13.5115 211.84 14.4654L215.134 26.0045C218.487 25.0475 221.854 24.0863 225.307 23.1486L222.161 11.5681ZM275.976 7.90572C257.741 7.07132 241.573 6.29572 222.161 11.5681L225.307 23.1486C242.678 18.4304 257.082 19.0538 275.427 19.8932L275.976 7.90572ZM279.76 8.07704C278.485 8.02057 277.226 7.96294 275.976 7.90572L275.427 19.8932C276.676 19.9503 277.944 20.0084 279.229 20.0653L279.76 8.07704ZM415.368 3.87382C370.182 6.93567 324.192 10.0455 279.76 8.07704L279.229 20.0653C324.448 22.0687 371.119 18.8997 416.18 15.8464L415.368 3.87382ZM436.16 2.48342C429.261 2.93247 422.324 3.40249 415.368 3.87382L416.18 15.8464C423.138 15.3749 430.059 14.9059 436.939 14.4581L436.16 2.48342ZM559.548 4.24096C517.583 -2.02247 477.677 -0.218918 436.16 2.48342L436.939 14.4581C478.409 11.7588 517.192 10.0521 557.777 16.1095L559.548 4.24096ZM578.289 7.6083C572.971 6.54658 566.987 5.35118 559.548 4.24096L557.777 16.1095C564.897 17.1722 570.627 18.3154 575.94 19.3761L578.289 7.6083ZM613.881 10.8788C598.517 11.6435 589.965 9.93914 578.289 7.6083L575.94 19.3761C587.882 21.7601 597.603 23.7038 614.478 22.8639L613.881 10.8788ZM644.433 6.15476C634.428 8.31499 625.091 10.3208 613.881 10.8788L614.478 22.8639C626.787 22.2513 637.009 20.0342 646.965 17.8845L644.433 6.15476ZM670.76 1.5311C660.941 2.58607 652.466 4.42029 644.433 6.15476L646.965 17.8845C655.04 16.1411 662.936 14.4408 672.042 13.4624L670.76 1.5311ZM746.793 14.8284C720.631 4.40157 700.772 -1.69333 670.76 1.5311L672.042 13.4624C699.204 10.5442 716.909 15.836 742.35 25.9757L746.793 14.8284ZM785.686 15.9373C777.448 17.6304 771.647 18.801 765.874 18.8587C760.308 18.9142 754.553 17.9214 746.793 14.8284L742.35 25.9757C751.327 29.5533 758.632 30.9315 765.993 30.8581C773.146 30.7867 780.138 29.3283 788.102 27.6917L785.686 15.9373ZM789.034 15.2524C787.881 15.4862 786.765 15.7157 785.686 15.9373L788.102 27.6917C789.182 27.4696 790.285 27.2431 791.42 27.0127L789.034 15.2524ZM839.552 19.2063C830.535 15.6362 822.709 13.6028 814.595 13.0247C806.509 12.4486 798.453 13.3412 789.034 15.2524L791.42 27.0127C800.264 25.2184 807.146 24.5243 813.742 24.9943C820.311 25.4624 826.911 27.1079 835.135 30.3637L839.552 19.2063ZM896.294 26.308C884.868 28.3811 875.936 28.6145 867.377 27.3965C858.752 26.1693 850.222 23.4307 839.552 19.2063L835.135 30.3637C846.123 34.714 855.677 37.8526 865.686 39.2769C875.76 40.7104 886.01 40.3698 898.436 38.1152L896.294 26.308ZM939.319 15.467C924.843 19.6315 910.704 23.6935 896.294 26.308L898.436 38.1152C913.54 35.3748 928.258 31.1357 942.637 26.9993L939.319 15.467ZM995.63 2.51361C976.174 4.85174 957.477 10.2435 939.319 15.467L942.637 26.9993C960.95 21.7312 978.723 16.6317 997.062 14.4279L995.63 2.51361ZM1080.8 7.72032C1054.19 3.77139 1023.45 -0.829502 995.63 2.51361L997.062 14.4279C1022.99 11.3126 1052.06 15.5868 1079.04 19.5903L1080.8 7.72032ZM1085.25 8.37891C1083.78 8.16193 1082.29 7.94206 1080.8 7.72032L1079.04 19.5903C1080.53 19.812 1082.02 20.0326 1083.49 20.2504L1085.25 8.37891ZM1141.34 21.0112C1123.11 16.171 1104.47 11.216 1085.25 8.37891L1083.49 20.2504C1101.94 22.9719 1119.92 27.7405 1138.26 32.6092L1141.34 21.0112ZM1195.2 33.2175C1177.12 30.5067 1159.43 25.8154 1141.34 21.0112L1138.26 32.6092C1156.24 37.3849 1174.57 42.2591 1193.42 45.0849L1195.2 33.2175ZM1256.28 31.9689C1235.45 34.1715 1215.46 36.2544 1195.2 33.2175L1193.42 45.0849C1215.44 48.3857 1236.95 46.0799 1257.55 43.9024L1256.28 31.9689ZM1314.01 30.0194C1294.32 27.9257 1274.95 29.9954 1256.28 31.9689L1257.55 43.9024C1276.42 41.9071 1294.52 40.0151 1312.74 41.9522L1314.01 30.0194ZM1334.78 33.8915C1328.41 32.4158 1321.56 30.8222 1314.01 30.0194L1312.74 41.9522C1319.46 42.6662 1325.62 44.0878 1332.07 45.5817L1334.78 33.8915ZM1365.04 37.5506C1354.2 38.3558 1345.06 36.2741 1334.78 33.8915L1332.07 45.5817C1342.23 47.9361 1353.03 50.4753 1365.93 49.5177L1365.04 37.5506ZM1415 28.1631C1398.13 32.3103 1381.85 36.3028 1365.04 37.5506L1365.93 49.5177C1383.9 48.1832 1401.16 43.9239 1417.86 39.8158L1415 28.1631ZM1451.23 20.3205C1438.88 22.2855 1426.79 25.2613 1415 28.1631L1417.86 39.8158C1429.74 36.8941 1441.34 34.0447 1453.11 32.1714L1451.23 20.3205ZM1477.19 25.4854C1475.01 23.3697 1472.38 20.6563 1467.72 19.6146C1463.66 18.707 1458.52 19.1605 1451.23 20.3205L1453.11 32.1714C1460.59 30.9813 1463.58 30.9845 1465.11 31.3254C1466.03 31.5323 1466.44 31.7663 1468.84 34.0961L1477.19 25.4854ZM1483.79 31.1089C1480.74 28.9227 1478.86 27.0986 1477.19 25.4855L1468.84 34.096C1470.6 35.8046 1473 38.1384 1476.8 40.8627L1483.79 31.1089ZM1518.65 31.6128C1512.22 33.0566 1505.6 34.5239 1499.29 34.762C1493.01 34.9988 1487.79 33.9757 1483.79 31.1089L1476.8 40.8627C1483.83 45.9016 1492.11 47.0413 1499.74 46.7534C1507.34 46.4668 1515.04 44.722 1521.28 43.3218L1518.65 31.6128ZM1523.25 30.6019C1521.76 30.9164 1520.21 31.2642 1518.65 31.6128L1521.28 43.3218C1522.85 42.9698 1524.32 42.6394 1525.73 42.3436L1523.25 30.6019ZM1531.77 28.1524C1528.19 29.2761 1525.39 30.1515 1523.25 30.6019L1525.73 42.3437C1528.56 41.7464 1532 40.659 1535.37 39.6008L1531.77 28.1524ZM1576.63 31.5561C1571.01 23.5739 1561.91 22.3018 1554.17 22.9152C1546.39 23.5317 1538.07 26.1748 1531.77 28.1524L1535.37 39.6008C1541.96 37.5284 1548.94 35.3671 1555.12 34.8777C1561.34 34.3851 1564.88 35.7056 1566.82 38.4675L1576.63 31.5561ZM1583.72 53.2059C1582.75 47.3929 1581.34 38.2364 1576.63 31.556L1566.82 38.4676C1569.65 42.4799 1570.79 48.6453 1571.89 55.1827L1583.72 53.2059ZM1583.57 52.5335L1583.57 52.5323L1572.04 55.8563L1572.04 55.8576L1583.57 52.5335ZM1583.85 53.9884L1583.72 53.2055L1571.89 55.1856L1572.02 55.9685L1583.85 53.9884ZM1591.08 119.617C1589.68 97.6805 1587.5 75.7045 1583.85 53.9851L1572.02 55.9719C1575.58 77.1695 1577.72 98.7164 1579.11 120.383L1591.08 119.617ZM12 126H1585.1V114H12V126ZM8.55061 114.569C8.07728 115.202 7.60947 115.836 7.14713 116.472L16.8529 123.528C17.2823 122.938 17.7167 122.349 18.1564 121.762L8.55061 114.569ZM31.9381 91.0812C24.0406 97.9072 15.5589 105.209 8.55061 114.569L18.1564 121.762C24.2648 113.604 31.7463 107.108 39.7852 100.16L31.9381 91.0812ZM51.1012 72.5786C45.4966 79.3444 38.9442 85.0256 31.9381 91.0812L39.7852 100.16C46.6745 94.2052 53.997 87.8938 60.3424 80.2336L51.1012 72.5786ZM55.8545 55.1186C55.6716 62.535 55.4343 67.3476 51.1012 72.5786L60.3424 80.2336C67.5725 71.5053 67.6694 62.77 67.8509 55.4145L55.8545 55.1186ZM56.4705 45.4196C56.0019 48.9347 55.9253 52.2502 55.8545 55.1186L67.8509 55.4145C67.9235 52.4697 67.995 49.7824 68.3653 47.0056L56.4705 45.4196ZM68.3545 36.0331C66.884 36.2988 64.3498 36.7117 62.2029 37.7356C59.6007 38.9766 57.0099 41.3747 56.4705 45.4196L68.3653 47.0056C68.33 47.2705 68.1856 47.7165 67.842 48.1355C67.5404 48.5034 67.283 48.6076 67.3683 48.5669C67.4721 48.5174 67.7519 48.4084 68.3388 48.2672C68.9266 48.1259 69.5929 48.0037 70.4879 47.842L68.3545 36.0331ZM72.6441 34.849C72.7133 34.7452 72.6845 34.9202 71.9374 35.202C71.0949 35.5199 70.0321 35.73 68.3545 36.0331L70.4879 47.842C71.9399 47.5796 74.1222 47.2035 76.1735 46.4295C78.3204 45.6195 80.8343 44.197 82.6287 41.5054L72.6441 34.849ZM81.2658 48.3983L83.4573 39.6325L71.8156 36.722L69.6241 45.4879L81.2658 48.3983ZM146.464 21.0301C133.48 19.6319 119.143 18.0445 105.927 20.3393C92.3114 22.7037 79.7183 29.2001 70.3979 43.6986L80.492 50.1876C87.7212 38.9422 97.1358 34.0455 107.98 32.1624C119.225 30.2098 131.801 31.5205 145.179 32.9611L146.464 21.0301Z" fill="#FFE68B"/>
</svg>
