<svg width="1620" height="189" viewBox="0 0 1620 189" fill="none" xmlns="http://www.w3.org/2000/svg">
<path d="M10.624 6.5C13.3629 11.5277 20.6688 54.9136 24.3568 59.6314C32.9964 70.6835 42.9822 75.0201 53.567 79.6169C58.8885 81.9279 64.3613 84.3046 69.8905 87.6334C74.8869 90.6415 78.9427 93.7148 82.7379 96.5906C91.937 103.561 99.6046 109.371 115.424 110.279C133.719 111.328 152.036 110.169 170.393 109.008C188.749 107.847 207.147 106.683 225.606 107.722C237.883 108.412 246.175 109.191 253.141 109.846C266.831 111.132 275.4 111.937 299.02 110.644C302.404 110.459 308.825 109.681 316.249 108.781C330.061 107.108 347.349 105.013 355.024 105.53C367.596 106.378 375.827 111.995 384.286 117.767C390.211 121.811 396.248 125.93 403.967 128.541C418.614 133.494 432.791 129.801 446.995 126.101C454.173 124.231 461.359 122.359 468.615 121.601C487.363 119.642 503.226 124.429 519.656 129.387C527.807 131.846 536.099 134.348 544.951 136.089C567.939 140.611 590.865 139.973 613.892 139.332C625.375 139.013 636.884 138.692 648.437 139.011C680.534 139.896 709.601 145.213 739.261 157.517C744.481 159.682 749.429 161.898 754.238 164.051C773.982 172.892 791.386 180.685 815.718 179.675C844.032 178.499 871.952 172.38 899.858 166.264C920.79 161.677 941.713 157.091 962.79 154.595C990.89 151.266 1013.66 150.856 1039.47 150.39C1046.13 150.27 1052.99 150.147 1060.19 149.968C1060.59 149.959 1061.99 149.915 1064.14 149.849C1077.96 149.422 1122.62 148.043 1128.61 148.507C1142.22 149.562 1152.18 154.851 1162.41 160.281C1169.39 163.99 1176.5 167.766 1184.98 170.3C1210.19 177.833 1235.91 173.012 1261.1 168.292C1264.76 167.608 1268.4 166.925 1272.03 166.283C1275.43 165.68 1278.9 164.991 1282.42 164.294C1300.4 160.724 1319.53 156.927 1337.04 163.239C1342.77 165.303 1347.75 168.616 1352.72 171.92C1359.36 176.331 1365.97 180.727 1374.3 182.11C1392.32 185.103 1411.33 179.869 1429.23 174.937C1434.28 173.547 1439.23 172.182 1444.06 171.031C1445.85 170.604 1447.65 170.165 1449.47 169.722C1466.8 165.503 1485.35 160.985 1503.11 164.335C1511.72 165.96 1519.89 169.558 1528.05 173.146C1533.94 175.74 1539.82 178.328 1545.84 180.162C1598.13 196.077 1607.92 128.07 1612.68 90.0684C1614.55 75.1606 1611.76 21.6195 1612.68 6.5H10.624Z" fill="#EACC43" stroke="#FFE68B" stroke-width="12" stroke-linecap="round"/>
</svg>
