<svg width="49" height="42" viewBox="0 0 49 42" fill="none" xmlns="http://www.w3.org/2000/svg">
<path d="M2.73163 16.9744C2.27534 17.1384 1.83546 17.3454 1.41785 17.5926C1.28662 17.6582 1.17293 17.7544 1.08635 17.8734C0.99976 17.9923 0.942804 18.1305 0.920264 18.2762C0.899326 18.5427 1.03878 18.8094 1.3335 19.0685C1.57864 19.2701 1.84281 19.447 2.12224 19.5967C2.33656 19.72 2.55483 19.8366 2.7731 19.9529C3.08559 20.1196 3.40876 20.291 3.70979 20.4814C7.79216 23.0534 11.5071 25.3339 15.5814 27.1765C15.5727 27.3233 15.563 27.4696 15.5532 27.6154C15.5255 28.0275 15.4971 28.4533 15.4965 28.8737C15.4955 29.5085 15.493 30.1437 15.489 30.7793C15.4785 32.7947 15.4676 34.8787 15.535 36.9281C15.5593 37.6669 15.8228 38.1953 16.2769 38.4157C16.7543 38.6466 17.3681 38.5121 18.0051 38.035C18.2348 37.863 18.4703 37.6697 18.7247 37.444C19.8408 36.4532 20.9552 35.4606 22.0804 34.4585L23.1 33.5502C23.1077 33.556 23.1152 33.5618 23.1222 33.5679L24.065 34.3843C25.1384 35.3133 26.2481 36.2736 27.3313 37.2282C27.6399 37.4995 27.9502 37.7693 28.2623 38.0376C29.2136 38.86 30.1981 39.7104 31.0823 40.6216C31.5508 41.1039 32.0063 41.3306 32.5537 41.3306C32.7897 41.3272 33.0242 41.2922 33.2511 41.2266C34.0498 41.0078 34.5651 40.5166 34.9221 39.6356C36.2674 36.3162 37.6442 32.9445 38.9756 29.6841C40.0685 27.0059 41.1607 24.3274 42.2518 21.6486C44.6027 15.8979 46.6307 10.0188 48.3263 4.03898C48.5317 3.34536 48.6761 2.63488 48.7579 1.91579C48.7854 1.74917 48.7751 1.5785 48.7283 1.41637C48.6813 1.25423 48.5987 1.10479 48.4867 0.979094C48.3518 0.856456 48.1912 0.765781 48.0168 0.713749C47.8426 0.661717 47.6589 0.649655 47.4793 0.678402C47.2415 0.707137 47.007 0.760412 46.78 0.837464L46.7494 0.846835C46.2394 0.999968 45.728 1.14869 45.2166 1.29765C44.0284 1.64349 42.7998 2.0011 41.6077 2.4088C32.9971 5.35533 24.2645 8.56315 15.6521 11.9432C13.1682 12.9177 10.639 13.9006 8.19295 14.8506C6.37146 15.557 4.55102 16.2649 2.73163 16.9744ZM19.1227 26.058C19.5968 25.6593 20.0462 25.2824 20.5074 24.9282C22.3156 23.5381 24.1256 22.1501 25.9372 20.7648C29.4967 18.0389 33.1777 15.2203 36.7779 12.4213C37.8787 11.5662 38.9236 10.6048 39.934 9.67685C40.2811 9.35865 40.6277 9.03906 40.9772 8.72384C41.2561 8.47247 41.7225 8.05185 41.4639 7.2301C41.4554 7.20325 41.4416 7.17845 41.4232 7.15727C41.4048 7.13607 41.3823 7.11899 41.357 7.10701C41.3317 7.09514 41.3043 7.08856 41.2762 7.08774C41.2484 7.08691 41.2205 7.09184 41.1947 7.1022C41.0866 7.14615 40.9823 7.18495 40.8818 7.22155C40.6724 7.2936 40.4685 7.38072 40.2716 7.48229C33.5903 11.135 27.7784 15.9249 22.158 20.5574C20.8869 21.6048 19.6889 22.6853 18.4217 23.828C17.8836 24.3135 17.3401 24.8009 16.7911 25.2906L4.25518 18.4532C4.32743 18.4083 4.40328 18.3696 4.48194 18.3375C6.49808 17.5731 8.51343 16.806 10.528 16.0361C15.4609 14.1547 20.5625 12.2091 25.601 10.3584C30.0881 8.71012 34.6799 7.11334 39.1204 5.56908C40.5969 5.05572 42.0733 4.54135 43.549 4.02601C44.1209 3.82594 44.6981 3.66943 45.3092 3.50396C45.4712 3.46021 45.6338 3.41588 45.7971 3.37094C43.3369 11.2215 40.1983 18.9218 37.1615 26.3726C35.5656 30.2877 33.9168 34.3332 32.3751 38.3763C28.1845 34.9793 24.1197 31.3883 20.1874 27.9137C19.6563 27.444 19.1241 26.974 18.5908 26.5039C18.7721 26.3518 18.9489 26.2034 19.1221 26.058H19.1227ZM21.4518 32.0465L17.8568 35.1136L17.5717 28.438L21.4518 32.0465Z" fill="#2D2500" stroke="#2D2500"/>
</svg>
