<svg width="41" height="45" viewBox="0 0 41 45" fill="none" xmlns="http://www.w3.org/2000/svg">
<mask id="path-1-outside-1_2009_54" maskUnits="userSpaceOnUse" x="0" y="0" width="41" height="45" fill="black">
<rect fill="white" width="41" height="45"/>
<path fill-rule="evenodd" clip-rule="evenodd" d="M32.9703 2.6326C34.5612 5.19071 36.5673 7.46089 38.9046 9.34822C38.9735 9.44086 39.0069 9.55545 38.9988 9.67096C38.9919 9.76947 38.9551 9.863 38.894 9.93918C38.8889 9.98697 38.8767 10.0338 38.8577 10.0781C38.8328 10.1364 38.7968 10.1891 38.7517 10.2334L21.445 27.109C21.2617 27.2938 21.0385 27.2806 20.8726 27.1717C20.7098 27.2503 20.5082 27.247 20.3382 27.0898L2.15369 10.4836C1.80867 10.1647 2.10266 9.70377 2.46447 9.66863L9.53835 2.40151L9.4811 2.47847C9.5483 2.40876 9.63425 2.36166 9.72731 2.3422C9.89457 2.19003 10.14 2.15411 10.321 2.3823L19.4303 13.703L31.902 2.1321C32.2284 1.83039 32.6614 2.09557 32.7175 2.4261C32.8226 2.46294 32.9122 2.53576 32.9703 2.6326ZM32.1819 3.18472L19.213 15.2169C18.755 15.6403 18.0872 14.9476 18.5451 14.5242L18.7375 14.3457L9.92001 3.40608L3.27983 10.2095L20.9071 26.3086L37.8853 9.73446C35.6484 7.8748 33.7224 5.66339 32.1819 3.18472Z"/>
<path fill-rule="evenodd" clip-rule="evenodd" d="M8.02969 42.3674C6.43879 39.8093 4.43274 37.5391 2.09541 35.6518C2.02651 35.5591 1.99306 35.4445 2.0012 35.329C2.00814 35.2305 2.04494 35.137 2.10599 35.0608C2.11114 35.013 2.12335 34.9662 2.14228 34.9219C2.16717 34.8636 2.20319 34.8109 2.2483 34.7666L19.555 17.891C19.7383 17.7062 19.9615 17.7194 20.1274 17.8283C20.2902 17.7497 20.4918 17.753 20.6618 17.9102L38.8463 34.5164C39.1913 34.8353 38.8973 35.2962 38.5355 35.3314L31.4617 42.5985L31.5189 42.5215C31.4517 42.5912 31.3657 42.6383 31.2727 42.6578C31.1054 42.81 30.86 42.8459 30.679 42.6177L21.5697 31.297L9.09798 42.8679C8.7716 43.1696 8.33861 42.9044 8.28253 42.5739C8.1774 42.5371 8.08776 42.4642 8.02969 42.3674ZM8.81805 41.8153L21.787 29.7831C22.245 29.3597 22.9128 30.0525 22.4549 30.4758L22.2625 30.6543L31.08 41.5939L37.7202 34.7905L20.0929 18.6914L3.1147 35.2655C5.35161 37.1252 7.27761 39.3366 8.81805 41.8153Z"/>
</mask>
<path fill-rule="evenodd" clip-rule="evenodd" d="M32.9703 2.6326C34.5612 5.19071 36.5673 7.46089 38.9046 9.34822C38.9735 9.44086 39.0069 9.55545 38.9988 9.67096C38.9919 9.76947 38.9551 9.863 38.894 9.93918C38.8889 9.98697 38.8767 10.0338 38.8577 10.0781C38.8328 10.1364 38.7968 10.1891 38.7517 10.2334L21.445 27.109C21.2617 27.2938 21.0385 27.2806 20.8726 27.1717C20.7098 27.2503 20.5082 27.247 20.3382 27.0898L2.15369 10.4836C1.80867 10.1647 2.10266 9.70377 2.46447 9.66863L9.53835 2.40151L9.4811 2.47847C9.5483 2.40876 9.63425 2.36166 9.72731 2.3422C9.89457 2.19003 10.14 2.15411 10.321 2.3823L19.4303 13.703L31.902 2.1321C32.2284 1.83039 32.6614 2.09557 32.7175 2.4261C32.8226 2.46294 32.9122 2.53576 32.9703 2.6326ZM32.1819 3.18472L19.213 15.2169C18.755 15.6403 18.0872 14.9476 18.5451 14.5242L18.7375 14.3457L9.92001 3.40608L3.27983 10.2095L20.9071 26.3086L37.8853 9.73446C35.6484 7.8748 33.7224 5.66339 32.1819 3.18472Z" fill="#272727"/>
<path fill-rule="evenodd" clip-rule="evenodd" d="M8.02969 42.3674C6.43879 39.8093 4.43274 37.5391 2.09541 35.6518C2.02651 35.5591 1.99306 35.4445 2.0012 35.329C2.00814 35.2305 2.04494 35.137 2.10599 35.0608C2.11114 35.013 2.12335 34.9662 2.14228 34.9219C2.16717 34.8636 2.20319 34.8109 2.2483 34.7666L19.555 17.891C19.7383 17.7062 19.9615 17.7194 20.1274 17.8283C20.2902 17.7497 20.4918 17.753 20.6618 17.9102L38.8463 34.5164C39.1913 34.8353 38.8973 35.2962 38.5355 35.3314L31.4617 42.5985L31.5189 42.5215C31.4517 42.5912 31.3657 42.6383 31.2727 42.6578C31.1054 42.81 30.86 42.8459 30.679 42.6177L21.5697 31.297L9.09798 42.8679C8.7716 43.1696 8.33861 42.9044 8.28253 42.5739C8.1774 42.5371 8.08776 42.4642 8.02969 42.3674ZM8.81805 41.8153L21.787 29.7831C22.245 29.3597 22.9128 30.0525 22.4549 30.4758L22.2625 30.6543L31.08 41.5939L37.7202 34.7905L20.0929 18.6914L3.1147 35.2655C5.35161 37.1252 7.27761 39.3366 8.81805 41.8153Z" fill="#272727"/>
<path d="M38.9046 9.34822L39.853 8.64289C39.7936 8.56311 39.7245 8.49113 39.6471 8.42867L38.9046 9.34822ZM32.9703 2.6326L31.9567 3.24038C31.9599 3.24588 31.9633 3.25134 31.9667 3.25678L32.9703 2.6326ZM38.9988 9.67096L37.8198 9.58787L37.8198 9.58787L38.9988 9.67096ZM38.894 9.93918L37.9717 9.2001C37.8308 9.37598 37.7431 9.58849 37.7189 9.81257L38.894 9.93918ZM38.8577 10.0781L37.7708 9.61379L37.7708 9.6138L38.8577 10.0781ZM38.7517 10.2334L39.5768 11.0796L39.5791 11.0773L38.7517 10.2334ZM21.445 27.109L20.6199 26.2627C20.6151 26.2674 20.6104 26.272 20.6057 26.2767L21.445 27.109ZM20.8726 27.1717L21.5212 26.1837C21.174 25.9558 20.7327 25.9268 20.3587 26.1074L20.8726 27.1717ZM20.3382 27.0898L21.1405 26.2219L21.1352 26.2171L20.3382 27.0898ZM2.15369 10.4836L1.35139 11.3515L1.35669 11.3564L2.15369 10.4836ZM2.46447 9.66863L2.57871 10.845C2.85687 10.818 3.11646 10.6933 3.31139 10.493L2.46447 9.66863ZM9.53835 2.40151L10.4867 3.10692C10.8581 2.60752 10.7787 1.90562 10.3049 1.50193C9.83119 1.09824 9.12557 1.13112 8.69143 1.57712L9.53835 2.40151ZM9.4811 2.47847L8.53279 1.77306C8.16066 2.27334 8.24115 2.97664 8.71669 3.3799C9.19223 3.78315 9.89923 3.74765 10.332 3.29878L9.4811 2.47847ZM9.72731 2.3422L9.96919 3.49909C10.1756 3.45593 10.3667 3.35835 10.5226 3.21646L9.72731 2.3422ZM10.321 2.3823L9.39508 3.11686L9.40021 3.12324L10.321 2.3823ZM19.4303 13.703L18.5094 14.4439C18.715 14.6994 19.0175 14.858 19.3445 14.8818C19.6715 14.9056 19.9937 14.7925 20.2341 14.5694L19.4303 13.703ZM31.902 2.1321L31.0997 1.26421L31.0982 1.26566L31.902 2.1321ZM32.7175 2.4261L31.5522 2.62381C31.6242 3.04779 31.9207 3.39923 32.3265 3.54147L32.7175 2.4261ZM32.1819 3.18472L33.1858 2.56086C32.9995 2.26108 32.689 2.06026 32.3391 2.01332C31.9893 1.96638 31.6368 2.07823 31.3781 2.31829L32.1819 3.18472ZM19.213 15.2169L20.0152 16.0848L20.0168 16.0834L19.213 15.2169ZM18.5451 14.5242L19.3474 15.3921L19.349 15.3907L18.5451 14.5242ZM18.7375 14.3457L19.5413 15.2122C19.9965 14.7899 20.0473 14.0874 19.6577 13.604L18.7375 14.3457ZM9.92001 3.40608L10.8402 2.66438C10.6282 2.40127 10.3136 2.24152 9.97605 2.2255C9.6385 2.20948 9.31023 2.33871 9.0742 2.58055L9.92001 3.40608ZM3.27983 10.2095L2.43401 9.38394C2.21033 9.61312 2.08922 9.92327 2.09841 10.2434C2.1076 10.5635 2.24631 10.8662 2.48278 11.0822L3.27983 10.2095ZM20.9071 26.3086L20.1101 27.1813C20.5726 27.6037 21.2844 27.5919 21.7327 27.1543L20.9071 26.3086ZM37.8853 9.73446L38.7109 10.5802C38.9505 10.3463 39.0796 10.0218 39.0663 9.68732C39.0529 9.3528 38.8983 9.03963 38.6409 8.82561L37.8853 9.73446ZM2.09541 35.6518L1.14703 36.3571C1.20637 36.4369 1.27554 36.5089 1.3529 36.5713L2.09541 35.6518ZM8.02969 42.3674L9.04335 41.7596C9.04005 41.7541 9.03672 41.7487 9.03333 41.7432L8.02969 42.3674ZM2.0012 35.329L3.18018 35.4121L3.18018 35.4121L2.0012 35.329ZM2.10599 35.0608L3.0283 35.7999C3.16924 35.624 3.25695 35.4115 3.28109 35.1874L2.10599 35.0608ZM2.14228 34.9219L3.22915 35.3862L3.22916 35.3862L2.14228 34.9219ZM2.2483 34.7666L1.42317 33.9204L1.42086 33.9227L2.2483 34.7666ZM19.555 17.891L20.3802 18.7373C20.3849 18.7326 20.3896 18.728 20.3943 18.7233L19.555 17.891ZM20.1274 17.8283L19.4788 18.8163C19.826 19.0442 20.2673 19.0732 20.6413 18.8926L20.1274 17.8283ZM20.6618 17.9102L19.8595 18.7781L19.8648 18.7829L20.6618 17.9102ZM38.8463 34.5164L39.6486 33.6485L39.6433 33.6436L38.8463 34.5164ZM38.5355 35.3314L38.4213 34.155C38.1431 34.182 37.8835 34.3067 37.6886 34.507L38.5355 35.3314ZM31.4617 42.5985L30.5133 41.8931C30.1419 42.3925 30.2213 43.0944 30.6951 43.4981C31.1688 43.9018 31.8744 43.8689 32.3086 43.4229L31.4617 42.5985ZM31.5189 42.5215L32.4672 43.2269C32.8393 42.7267 32.7588 42.0234 32.2833 41.6201C31.8078 41.2168 31.1008 41.2523 30.668 41.7012L31.5189 42.5215ZM31.2727 42.6578L31.0308 41.5009C30.8244 41.5441 30.6333 41.6416 30.4774 41.7835L31.2727 42.6578ZM30.679 42.6177L31.6049 41.8831L31.5998 41.8768L30.679 42.6177ZM21.5697 31.297L22.4906 30.5561C22.285 30.3006 21.9825 30.142 21.6555 30.1182C21.3285 30.0944 21.0063 30.2075 20.7659 30.4306L21.5697 31.297ZM9.09798 42.8679L9.90027 43.7358L9.90184 43.7343L9.09798 42.8679ZM8.28253 42.5739L9.44778 42.3762C9.37584 41.9522 9.0793 41.6008 8.67347 41.4585L8.28253 42.5739ZM8.81805 41.8153L7.81422 42.4391C8.00052 42.7389 8.31105 42.9397 8.66086 42.9867C9.01068 43.0336 9.36316 42.9218 9.62191 42.6817L8.81805 41.8153ZM21.787 29.7831L20.9848 28.9152L20.9832 28.9166L21.787 29.7831ZM22.4549 30.4758L21.6526 29.6079L21.651 29.6093L22.4549 30.4758ZM22.2625 30.6543L21.4587 29.7878C21.0035 30.2101 20.9527 30.9126 21.3423 31.396L22.2625 30.6543ZM31.08 41.5939L30.1598 42.3356C30.3718 42.5987 30.6864 42.7585 31.0239 42.7745C31.3615 42.7905 31.6898 42.6613 31.9258 42.4195L31.08 41.5939ZM37.7202 34.7905L38.566 35.6161C38.7897 35.3869 38.9108 35.0767 38.9016 34.7566C38.8924 34.4365 38.7537 34.1338 38.5172 33.9178L37.7202 34.7905ZM20.0929 18.6914L20.8899 17.8187C20.4274 17.3963 19.7156 17.4081 19.2673 17.8457L20.0929 18.6914ZM3.1147 35.2655L2.28909 34.4198C2.04953 34.6537 1.92038 34.9782 1.93374 35.3127C1.94709 35.6472 2.10169 35.9604 2.35913 36.1744L3.1147 35.2655ZM39.6471 8.42867C37.413 6.62472 35.4952 4.45446 33.974 2.00843L31.9667 3.25678C33.6273 5.92695 35.7215 8.29706 38.1621 10.2678L39.6471 8.42867ZM40.1778 9.75405C40.2057 9.35755 40.0911 8.96306 39.853 8.64289L37.9562 10.0535C37.8559 9.91865 37.8082 9.75335 37.8198 9.58787L40.1778 9.75405ZM39.8163 10.6783C40.0275 10.4147 40.1539 10.0924 40.1778 9.75405L37.8198 9.58787C37.8298 9.44654 37.8826 9.31127 37.9717 9.2001L39.8163 10.6783ZM37.7189 9.81257C37.7263 9.74434 37.7437 9.67734 37.7708 9.61379L39.9446 10.5424C40.0096 10.3903 40.0515 10.2296 40.0691 10.0658L37.7189 9.81257ZM37.7708 9.6138C37.8066 9.5302 37.8585 9.45386 37.9243 9.38941L39.5791 11.0773C39.7351 10.9244 39.8591 10.7426 39.9446 10.5424L37.7708 9.6138ZM37.9266 9.38715L20.6199 26.2627L22.2701 27.9552L39.5768 11.0796L37.9266 9.38715ZM20.6057 26.2767C20.7042 26.1775 20.8698 26.0839 21.0787 26.0709C21.271 26.0589 21.4233 26.1194 21.5212 26.1837L20.224 28.1598C20.4878 28.3329 20.8346 28.4545 21.2258 28.4301C21.6336 28.4047 22.0025 28.2253 22.2842 27.9412L20.6057 26.2767ZM20.3587 26.1074C20.4532 26.0618 20.5864 26.0269 20.744 26.0451C20.9113 26.0645 21.0492 26.1376 21.1404 26.2219L19.5359 27.9577C20.1075 28.4862 20.8441 28.4979 21.3865 28.2361L20.3587 26.1074ZM21.1352 26.2171L2.95069 9.61088L1.35669 11.3564L19.5412 27.9626L21.1352 26.2171ZM2.95598 9.61574C3.04289 9.69608 3.13764 9.8354 3.17048 10.0255C3.20182 10.207 3.16477 10.3646 3.11203 10.4759C3.02252 10.6648 2.84054 10.8196 2.57871 10.845L2.35023 8.49226C1.72659 8.55282 1.21671 8.95567 0.976013 9.46348C0.696102 10.054 0.771168 10.8151 1.3514 11.3515L2.95598 9.61574ZM3.31139 10.493L10.3853 3.22591L8.69143 1.57712L1.61755 8.84423L3.31139 10.493ZM8.59003 1.69611L8.53279 1.77306L10.4294 3.18387L10.4867 3.10692L8.59003 1.69611ZM10.332 3.29878C10.234 3.40038 10.1076 3.47016 9.96919 3.49909L9.48542 1.18531C9.16095 1.25315 8.86258 1.41714 8.63022 1.65816L10.332 3.29878ZM10.5226 3.21646C10.4385 3.29297 10.2672 3.40277 10.0131 3.40151C9.71911 3.40004 9.50124 3.25063 9.3951 3.11684L11.247 1.64776C10.9598 1.28578 10.5287 1.04024 10.0249 1.03773C9.56102 1.03542 9.18334 1.23926 8.93197 1.46794L10.5226 3.21646ZM9.40021 3.12324L18.5094 14.4439L20.3511 12.9621L11.2419 1.64136L9.40021 3.12324ZM20.2341 14.5694L32.7059 2.99854L31.0982 1.26566L18.6264 12.8366L20.2341 14.5694ZM32.7043 2.99999C32.6201 3.07784 32.4897 3.15111 32.3254 3.17445C32.1681 3.19677 32.0302 3.16643 31.928 3.12066C31.7544 3.04289 31.5956 2.87952 31.5522 2.62381L33.8827 2.22838C33.7833 1.64215 33.38 1.18092 32.8942 0.963359C32.3438 0.716829 31.6398 0.764923 31.0997 1.26421L32.7043 2.99999ZM33.984 2.02483C33.7842 1.69166 33.4745 1.43902 33.1084 1.31072L32.3265 3.54147C32.1708 3.48687 32.0403 3.37986 31.9567 3.24038L33.984 2.02483ZM31.3781 2.31829L18.4091 14.3505L20.0168 16.0834L32.9858 4.05116L31.3781 2.31829ZM18.4107 14.3491C18.5399 14.2296 18.7457 14.1484 18.969 14.1708C19.1625 14.1902 19.3011 14.2792 19.3865 14.3678C19.4713 14.4557 19.5629 14.6056 19.5726 14.8168C19.5837 15.062 19.4774 15.2719 19.3474 15.3921L17.7428 13.6563C17.3838 13.9882 17.1893 14.4435 17.2112 14.9243C17.2315 15.3713 17.4329 15.7473 17.6847 16.0084C17.937 16.2701 18.2999 16.4794 18.733 16.5228C19.1961 16.5693 19.6571 16.4159 20.0152 16.0848L18.4107 14.3491ZM19.349 15.3907L19.5413 15.2122L17.9336 13.4793L17.7413 13.6578L19.349 15.3907ZM19.6577 13.604L10.8402 2.66438L8.9998 4.14777L17.8173 15.0874L19.6577 13.604ZM9.0742 2.58055L2.43401 9.38394L4.12565 11.035L10.7658 4.2316L9.0742 2.58055ZM2.48278 11.0822L20.1101 27.1813L21.7041 25.4359L4.07688 9.33676L2.48278 11.0822ZM21.7327 27.1543L38.7109 10.5802L37.0597 8.88872L20.0815 25.4628L21.7327 27.1543ZM31.1781 3.80859C32.7853 6.39469 34.7951 8.70239 37.1297 10.6433L38.6409 8.82561C36.5017 7.04721 34.6595 4.93209 33.1858 2.56086L31.1781 3.80859ZM1.3529 36.5713C3.58697 38.3753 5.50484 40.5455 7.02604 42.9916L9.03333 41.7432C7.37274 39.0731 5.27851 36.7029 2.83792 34.7322L1.3529 36.5713ZM0.82222 35.246C0.794278 35.6424 0.908917 36.0369 1.14703 36.3571L3.04378 34.9465C3.1441 35.0813 3.19184 35.2466 3.18018 35.4121L0.82222 35.246ZM1.18368 34.3217C0.9725 34.5853 0.846066 34.9076 0.82222 35.246L3.18018 35.4121C3.17022 35.5535 3.11738 35.6887 3.0283 35.7999L1.18368 34.3217ZM3.28109 35.1874C3.27374 35.2557 3.2563 35.3227 3.22915 35.3862L1.0554 34.4576C0.990395 34.6097 0.948537 34.7704 0.930886 34.9342L3.28109 35.1874ZM3.22916 35.3862C3.19345 35.4698 3.14149 35.5461 3.07573 35.6106L1.42086 33.9227C1.26489 34.0756 1.14088 34.2575 1.0554 34.4576L3.22916 35.3862ZM3.07342 35.6129L20.3802 18.7373L18.7299 17.0448L1.42317 33.9204L3.07342 35.6129ZM20.3943 18.7233C20.2958 18.8225 20.1302 18.9161 19.9213 18.9291C19.729 18.9411 19.5767 18.8806 19.4788 18.8163L20.776 16.8402C20.5122 16.6671 20.1654 16.5455 19.7742 16.5699C19.3664 16.5953 18.9975 16.7747 18.7158 17.0588L20.3943 18.7233ZM20.6413 18.8926C20.5468 18.9382 20.4136 18.9731 20.256 18.9549C20.0887 18.9355 19.9508 18.8624 19.8596 18.7781L21.4641 17.0423C20.8925 16.5138 20.1559 16.5021 19.6135 16.7639L20.6413 18.8926ZM19.8648 18.7829L38.0493 35.3891L39.6433 33.6436L21.4588 17.0374L19.8648 18.7829ZM38.044 35.3843C37.9571 35.3039 37.8624 35.1646 37.8295 34.9745C37.7982 34.793 37.8352 34.6354 37.888 34.5241C37.9775 34.3352 38.1595 34.1804 38.4213 34.155L38.6498 36.5077C39.2734 36.4472 39.7833 36.0443 40.024 35.5365C40.3039 34.946 40.2288 34.1849 39.6486 33.6485L38.044 35.3843ZM37.6886 34.507L30.6147 41.7741L32.3086 43.4229L39.3824 36.1558L37.6886 34.507ZM32.41 43.3039L32.4672 43.2269L30.5706 41.8161L30.5133 41.8931L32.41 43.3039ZM30.668 41.7012C30.766 41.5996 30.8924 41.5298 31.0308 41.5009L31.5146 43.8147C31.8391 43.7468 32.1374 43.5829 32.3698 43.3418L30.668 41.7012ZM30.4774 41.7835C30.5615 41.707 30.7328 41.5972 30.9869 41.5985C31.2809 41.6 31.4988 41.7494 31.6049 41.8832L29.753 43.3522C30.0402 43.7142 30.4713 43.9598 30.9751 43.9623C31.439 43.9646 31.8167 43.7607 32.068 43.5321L30.4774 41.7835ZM31.5998 41.8768L22.4906 30.5561L20.6489 32.0379L29.7581 43.3586L31.5998 41.8768ZM20.7659 30.4306L8.29413 42.0015L9.90184 43.7343L22.3736 32.1634L20.7659 30.4306ZM8.2957 42C8.37991 41.9222 8.51026 41.8489 8.67464 41.8256C8.83192 41.8032 8.96983 41.8336 9.07201 41.8793C9.24565 41.9571 9.40439 42.1205 9.44778 42.3762L7.11728 42.7716C7.21675 43.3579 7.62003 43.8191 8.10578 44.0366C8.6562 44.2832 9.36016 44.2351 9.90027 43.7358L8.2957 42ZM7.01603 42.9752C7.2158 43.3083 7.52555 43.561 7.89159 43.6893L8.67347 41.4585C8.82924 41.5131 8.95971 41.6201 9.04335 41.7596L7.01603 42.9752ZM9.62191 42.6817L22.5909 30.6495L20.9832 28.9166L8.0142 40.9488L9.62191 42.6817ZM22.5893 30.6509C22.4601 30.7704 22.2543 30.8516 22.031 30.8292C21.8375 30.8098 21.6989 30.7208 21.6135 30.6322C21.5288 30.5443 21.4371 30.3944 21.4274 30.1832C21.4163 29.9381 21.5226 29.7281 21.6526 29.6079L23.2572 31.3437C23.6162 31.0118 23.8107 30.5565 23.7888 30.0757C23.7685 29.6287 23.5671 29.2527 23.3153 28.9916C23.063 28.7299 22.7001 28.5206 22.267 28.4772C21.8039 28.4307 21.3429 28.5841 20.9848 28.9152L22.5893 30.6509ZM21.651 29.6093L21.4587 29.7878L23.0664 31.5207L23.2587 31.3422L21.651 29.6093ZM21.3423 31.396L30.1598 42.3356L32.0002 40.8522L23.1827 29.9126L21.3423 31.396ZM31.9258 42.4195L38.566 35.6161L36.8744 33.965L30.2342 40.7684L31.9258 42.4195ZM38.5172 33.9178L20.8899 17.8187L19.2959 19.5641L36.9231 35.6632L38.5172 33.9178ZM19.2673 17.8457L2.28909 34.4198L3.94031 36.1113L20.9185 19.5372L19.2673 17.8457ZM9.82189 41.1914C8.21468 38.6053 6.20492 36.2976 3.87028 34.3567L2.35913 36.1744C4.49829 37.9528 6.34054 40.0679 7.81422 42.4391L9.82189 41.1914Z" fill="#272727" mask="url(#path-1-outside-1_2009_54)"/>
</svg>
